# xmcd
#
# Track frame offsets:
#	150
#	18012
#	33010
#	45887
#	61480
#	74985
#	90827
#	106862
#	123085
#	137522
#	153997
#	168362
#	182862
#	198035
#	215312
#	229405
#
# Disc length: 3268 seconds
#
# Revision: 1
# Processed by: cddbd v1.5.1PL0 Copyright (c) Steve Scherf et al.
# Submitted via: CDex 1.50Beta5
#
DISCID=c40cc210
DTITLE=八代亜紀 - 八代亜紀全曲集〜舟唄〜
DYEAR=2000
DGENRE=World
TTITLE0=舟唄
TTITLE1=涙の朝
TTITLE2=貴方につくします
TTITLE3=花水仙
TTITLE4=もう一度逢いたい
TTITLE5=別れの夜明け
TTITLE6=おんなの涙
TTITLE7=港町絶唱
TTITLE8=なみだ恋
TTITLE9=愛の終着駅
TTITLE10=おんな港町
TTITLE11=しのび恋
TTITLE12=愛の執念
TTITLE13=おんなの夢
TTITLE14=恋街ブルース
TTITLE15=雨の慕情
EXTD=
EXTT0=
EXTT1=
EXTT2=
EXTT3=
EXTT4=
EXTT5=
EXTT6=
EXTT7=
EXTT8=
EXTT9=
EXTT10=
EXTT11=
EXTT12=
EXTT13=
EXTT14=
EXTT15=
PLAYORDER=
